# xmcd
#
# Track frame offsets:
#	150
#	18403
#	39255
#	58158
#	76580
#	94364
#	112077
#	127710
#	147052
#	163779
#	180733
#	197722
#	215848
#	231064
#	252743
#	270150
#	285783
#	304178
#
# Disc length: 4297 seconds
#
# Revision: 1
# Processed by: cddbd v1.5.2PL0 Copyright (c) Steve Scherf et al.
# Submitted via: audiograbber 1.83.01
#
DISCID=f510c712
DTITLE=Various Artist - Nu Urban Traxx 027
DYEAR=2001
DGENRE=Hip-Hop
TTITLE0=Ludacris - Rollout (My Business)
TTITLE1=Jay-Z - Girls, Girls, Girls
TTITLE2=Missy Elliot Ft Ginuwine and Tweet - Take Away
TTITLE3=Busta Rhymes - Break Ya Neck
TTITLE4=P Diddy - Diddy
TTITLE5=Craig David - 7 Days
TTITLE6=Fabolous - Young'n (Holla Back)
TTITLE7=Dmx - Who We Be
TTITLE8=Faith Evans - You Gets No Love (With Faiths Rap)
TTITLE9=Styles Ft Jadekiss and Eve - We Gonna Make It
TTITLE10=Erick Sermon - I'm Hot
TTITLE11=Timbaland and Magoo Ft Tweet - All Y'all
TTITLE12=N.o.r.e. - Grimey
TTITLE13=Dungeon Family - Trans Df Express
TTITLE14=Saquille O'neal Ft Common and Black Thought - In The Sun
TTITLE15=Fat Joe Ft R. Kelly - We Thuggin'
TTITLE16=G. Dep - Special Delivery
TTITLE17=Cadillac Tan - Just Like A Thug
EXTD=
EXTT0=
EXTT1=
EXTT2=
EXTT3=
EXTT4=
EXTT5=
EXTT6=
EXTT7=
EXTT8=
EXTT9=
EXTT10=
EXTT11=
EXTT12=
EXTT13=
EXTT14=
EXTT15=
EXTT16=
EXTT17=
PLAYORDER=
